<svg width="1511" height="340" viewBox="0 0 1511 340" fill="none" xmlns="http://www.w3.org/2000/svg">
    <path d="M0 105.357H47.6282V91.9438V70.1987V56.7852H0V67.6204V94.3623V105.357ZM34.4395 91.9438H13.1674V70.1987H34.4395V91.9438Z" fill="#ED1C24"/>
    <path d="M130.823 56.7852H68.8684V125.771H0V202.118H145.086V56.7852H130.823ZM14.2736 187.831V140.09H68.8684V187.831H14.2736ZM130.823 187.831H83.1633V140.09H130.823V187.831ZM83.1633 125.771V71.083H130.823V125.771H83.1633Z" fill="#ED1C24"/>
    <path d="M213.231 202.118V56.8809H230.09V202.118H213.231Z" fill="#414042"/>
    <path d="M393.076 202.044H373.846L295.491 80.2242C295.491 80.2242 295.395 107.616 295.395 119.538V202.086H279.824V56.7852H298.873L377.42 178.242C377.42 178.242 377.186 144.351 377.324 140.175V56.7852H393.087L393.076 202.044Z" fill="#414042"/>
    <path d="M487.918 202.118H471.06V71.8819H425.144V56.8809H533.844V71.8819H487.918V202.118Z" fill="#414042"/>
    <path d="M646.672 202.118H565.838V56.8809H646.672V71.8819H582.675V118.664H642.768V133.58H582.675V187.021H646.672V202.118Z" fill="#414042"/>
    <path d="M705.787 141.72V202.118H688.929V56.8809H728.697C746.48 56.8809 759.619 60.2902 768.114 67.1088C776.609 73.9275 780.863 84.1945 780.877 97.9099C780.877 117.087 771.16 130.068 751.724 136.851L791.077 202.118H771.114L736.015 141.72H705.787ZM705.787 127.209H728.888C740.794 127.209 749.522 124.844 755.074 120.113C760.626 115.383 763.402 108.28 763.402 98.8048C763.402 89.209 760.566 82.2909 754.894 78.0506C749.221 73.8103 740.148 71.6794 727.676 71.6581H705.787V127.209Z" fill="#414042"/>
    <path d="M907.446 56.8809H925.591L873.326 202.118H856.67L804.702 56.8809H822.549L855.872 150.85C859.566 161.147 862.614 171.666 864.998 182.344C867.415 171.462 870.516 160.744 874.283 150.254L907.446 56.8809Z" fill="#414042"/>
    <path d="M1079.56 129.297C1079.56 151.863 1073.86 169.619 1062.47 182.568C1051.07 195.516 1035.24 201.976 1014.97 201.948C994.233 201.948 978.237 195.601 966.977 182.909C955.717 170.216 950.09 152.282 950.097 129.105C950.097 106.156 955.745 88.364 967.04 75.7282C978.336 63.0924 994.382 56.7781 1015.18 56.7852C1035.41 56.7852 1051.2 63.2132 1062.54 76.0691C1073.89 88.9251 1079.56 106.668 1079.56 129.297ZM966.062 129.297C966.062 148.929 970.235 163.82 978.58 173.97C986.926 184.12 999.055 189.195 1014.97 189.195C1031.01 189.195 1043.12 184.137 1051.3 174.023C1059.48 163.909 1063.57 148.993 1063.57 129.276C1063.57 109.779 1059.5 94.9873 1051.34 84.9014C1043.19 74.8155 1031.13 69.7725 1015.18 69.7725C999.14 69.7725 986.944 74.8475 978.591 84.9973C970.238 95.1471 966.069 109.914 966.083 129.297H966.062Z" fill="#414042"/>
    <path d="M1124.02 202.118V56.8809H1140.88V186.861H1204.84V202.161L1124.02 202.118Z" fill="#414042"/>
    <path d="M1303.04 126.122H1350.91V194.724C1343.48 197.105 1335.87 198.911 1328.17 200.126C1319.3 201.432 1310.35 202.044 1301.38 201.958C1280.07 201.958 1263.47 195.608 1251.59 182.908C1239.7 170.209 1233.77 152.406 1233.78 129.499C1233.78 114.832 1236.72 101.98 1242.6 90.9421C1248.28 80.1112 1257.14 71.2868 1267.99 65.6598C1279.03 59.8427 1291.97 56.9341 1306.81 56.9341C1321.22 56.8096 1335.51 59.6338 1348.8 65.2337L1342.42 79.702C1329.7 74.3039 1317.46 71.6013 1305.71 71.5942C1288.57 71.5942 1275.18 76.7082 1265.54 86.9361C1255.9 97.1641 1251.09 111.37 1251.1 129.553C1251.1 148.595 1255.73 163.035 1265.01 172.872C1274.28 182.71 1287.92 187.632 1305.9 187.639C1315.54 187.652 1325.15 186.518 1334.52 184.262V140.782H1303.01L1303.04 126.122Z" fill="#414042"/>
    <path d="M1488.38 202.118L1470.38 156.082H1412.47L1394.68 202.118H1377.67L1434.8 56.7852H1448.94L1505.77 202.118H1488.38ZM1465.15 140.953L1448.34 96.1095C1446.17 90.4273 1443.94 83.4631 1441.63 75.2168C1439.96 82.2955 1437.88 89.2713 1435.4 96.1095L1418.38 140.953H1465.15Z" fill="#414042"/>
    <path d="M244.757 266.767C244.832 267.858 244.672 268.951 244.286 269.974C243.901 270.996 243.299 271.923 242.523 272.691C240.729 274.17 238.553 275.109 236.248 275.397V275.727C239.641 276.186 242.119 277.187 243.693 278.711C244.499 279.548 245.124 280.544 245.528 281.635C245.933 282.725 246.108 283.888 246.044 285.05C246.124 286.71 245.791 288.365 245.077 289.865C244.362 291.366 243.287 292.665 241.949 293.648C239.226 295.665 235.244 296.67 230.004 296.663H212.434V256.752H229.919C239.811 256.752 244.757 260.091 244.757 266.767ZM238.864 267.353C238.929 266.522 238.753 265.689 238.357 264.956C237.961 264.223 237.361 263.62 236.631 263.219C234.501 262.279 232.179 261.859 229.855 261.994H218.475V273.256H228.675C232.408 273.256 235.056 272.787 236.567 271.871C237.326 271.401 237.942 270.731 238.347 269.934C238.752 269.138 238.931 268.245 238.864 267.353V267.353ZM239.992 284.645C240.056 283.711 239.861 282.777 239.429 281.946C238.998 281.115 238.346 280.42 237.545 279.936C235.907 278.949 233.199 278.455 229.419 278.455H218.475V291.602H229.558C236.514 291.602 239.992 289.283 239.992 284.645V284.645Z" fill="#414042"/>
    <path d="M273.857 297.398C267.964 297.398 263.316 295.601 259.913 292.007C256.509 288.413 254.808 283.423 254.808 277.038C254.808 270.603 256.389 265.492 259.551 261.707C261.095 259.843 263.047 258.361 265.254 257.374C267.462 256.388 269.867 255.923 272.283 256.017C277.246 256.017 281.196 257.662 284.131 260.95C287.067 264.239 288.52 268.578 288.492 273.969V277.794H261.051C261.172 282.482 262.352 286.033 264.593 288.448C266.833 290.863 269.989 292.078 274.059 292.092C278.453 292.079 282.797 291.161 286.822 289.397V294.788C284.877 295.651 282.849 296.315 280.77 296.769C278.494 297.217 276.177 297.427 273.857 297.398V297.398ZM272.219 261.089C270.792 261.024 269.368 261.271 268.046 261.811C266.724 262.352 265.535 263.174 264.561 264.221C262.522 266.66 261.34 269.704 261.2 272.883H282.036C282.036 269.076 281.189 266.156 279.494 264.125C278.592 263.098 277.468 262.29 276.207 261.764C274.946 261.238 273.582 261.007 272.219 261.089V261.089Z" fill="#414042"/>
    <path d="M319.571 297.398C317.127 297.429 314.705 296.939 312.466 295.959C310.305 294.987 308.44 293.458 307.063 291.527H306.626C306.906 293.725 307.052 295.938 307.063 298.154V314.615H301V256.752H305.903L306.743 262.218H307.031C308.393 260.195 310.259 258.565 312.444 257.487C314.672 256.481 317.095 255.982 319.539 256.028C324.814 256.028 328.891 257.835 331.77 261.451C334.649 265.066 336.092 270.141 336.099 276.675C336.099 283.231 334.638 288.324 331.717 291.953C328.796 295.583 324.747 297.398 319.571 297.398ZM318.698 261.174C314.621 261.174 311.675 262.303 309.86 264.562C308.045 266.82 307.112 270.411 307.063 275.333V276.686C307.063 282.29 307.995 286.3 309.86 288.715C311.725 291.13 314.717 292.341 318.837 292.348C320.43 292.399 322.011 292.041 323.427 291.308C324.844 290.576 326.05 289.492 326.931 288.161C328.881 285.369 329.856 281.52 329.856 276.612C329.856 271.704 328.881 267.886 326.931 265.158C325.996 263.862 324.754 262.818 323.317 262.121C321.881 261.424 320.293 261.095 318.698 261.163V261.174Z" fill="#414042"/>
    <path d="M375.75 261.93H362.806V296.663H356.775V261.93H344.012V256.752H375.782L375.75 261.93Z" fill="#414042"/>
    <path d="M391.545 256.752V282.067L391.29 288.693L391.183 290.824L412.743 256.806H420.262V296.716H414.625V272.318L414.742 267.513L414.923 262.783L393.396 296.716H385.876V256.752H391.545Z" fill="#414042"/>
    <path d="M458.52 256.752H465.136L447.948 276.015L466.561 296.663H459.478L441.301 276.42V296.663H435.259V256.752H441.301V276.164L458.52 256.752Z" fill="#414042"/>
    <path d="M500.671 296.663L499.469 290.984H499.182C497.629 293.125 495.591 294.867 493.236 296.066C490.893 297.023 488.374 297.477 485.844 297.398C481.888 297.398 478.789 296.379 476.548 294.34C474.315 292.295 473.188 289.397 473.188 285.636C473.188 277.567 479.622 273.341 492.492 272.957L499.256 272.744V270.262C499.256 267.13 498.583 264.818 497.236 263.326C495.895 261.834 493.736 261.089 490.779 261.089C486.844 261.251 482.995 262.296 479.516 264.146L477.665 259.523C479.703 258.424 481.868 257.579 484.111 257.008C486.41 256.408 488.776 256.104 491.152 256.103C495.895 256.103 499.416 257.168 501.713 259.299C504.011 261.43 505.156 264.818 505.149 269.463V296.695L500.671 296.663ZM487.036 292.401C490.801 292.401 493.747 291.336 495.895 289.311C498.044 287.287 499.086 284.357 499.086 280.639V277.038L493.056 277.294C488.259 277.464 484.791 278.21 482.675 279.531C481.634 280.175 480.788 281.09 480.226 282.178C479.664 283.267 479.407 284.487 479.484 285.71C479.422 286.637 479.567 287.565 479.909 288.428C480.251 289.291 480.782 290.066 481.462 290.696C483.05 291.927 485.032 292.534 487.036 292.401V292.401Z" fill="#414042"/>
    <path d="M549.511 296.663H543.406V261.93H531.441C531.025 268.844 530.115 275.72 528.718 282.503C527.555 287.575 526.045 291.289 524.187 293.648C523.375 294.756 522.311 295.655 521.083 296.268C519.854 296.882 518.497 297.192 517.125 297.174C516.065 297.215 515.006 297.067 513.998 296.737V292.241C514.592 292.389 515.203 292.461 515.816 292.454C518.603 292.454 520.819 289.507 522.464 283.611C524.109 277.716 525.357 268.756 526.208 256.731H549.511V296.663Z" fill="#414042"/>
    <path d="M570.582 273.256H582.856C593.038 273.256 598.126 277.006 598.119 284.506C598.119 288.434 596.793 291.442 594.141 293.53C591.492 295.661 587.599 296.663 582.441 296.663H564.541V256.752H570.582V273.256ZM570.582 278.455V291.602H582.207C585.405 291.602 587.855 291.045 589.557 289.929C590.387 289.384 591.059 288.629 591.505 287.741C591.952 286.852 592.156 285.862 592.099 284.869C592.169 283.923 591.988 282.976 591.576 282.123C591.163 281.27 590.532 280.541 589.748 280.01C588.195 278.945 585.611 278.455 582.026 278.455H570.582Z" fill="#414042"/>
    <path d="M616.891 256.752V273.469H639.227V256.752H645.257V296.663H639.227V278.679H616.891V296.663H610.86V256.752H616.891Z" fill="#414042"/>
    <path d="M684.759 296.663L683.558 290.984H683.27C681.717 293.125 679.68 294.867 677.325 296.066C674.964 297.028 672.427 297.482 669.88 297.398C665.93 297.398 662.835 296.379 660.594 294.34C658.354 292.302 657.258 289.4 657.308 285.636C657.308 277.567 663.743 273.341 676.612 272.957L683.377 272.744V270.262C683.377 267.13 682.696 264.818 681.356 263.326C680.016 261.834 677.857 261.089 674.9 261.089C670.964 261.251 667.115 262.296 663.636 264.146L661.775 259.523C663.817 258.425 665.985 257.581 668.231 257.008C670.527 256.408 672.889 256.104 675.261 256.103C680.019 256.103 683.54 257.168 685.823 259.299C688.106 261.43 689.251 264.818 689.258 269.463V296.695L684.759 296.663ZM671.124 292.401C674.879 292.401 677.835 291.336 679.984 289.311C682.132 287.287 683.175 284.357 683.175 280.639V277.038L677.144 277.294C672.337 277.464 668.876 278.21 666.763 279.531C665.721 280.173 664.873 281.088 664.311 282.177C663.749 283.265 663.493 284.487 663.572 285.71C663.51 286.637 663.655 287.565 663.997 288.428C664.34 289.291 664.87 290.066 665.551 290.696C667.141 291.93 669.128 292.536 671.135 292.401H671.124Z" fill="#414042"/>
    <path d="M705.894 296.663H698.842L710.297 279.808C707.563 279.322 705.072 277.93 703.224 275.855C701.541 273.776 700.668 271.157 700.767 268.483C700.687 266.863 700.977 265.247 701.615 263.757C702.252 262.268 703.221 260.943 704.447 259.885C706.893 257.797 710.307 256.752 714.69 256.752H732.43V296.663H726.442V280.682H716.37L705.894 296.663ZM706.659 268.557C706.659 273.167 710.003 275.472 716.689 275.472H726.442V261.994H715.455C709.598 261.994 706.666 264.182 706.659 268.557Z" fill="#414042"/>
    <path d="M803.426 276.675C803.426 283.189 801.792 288.267 798.523 291.911C795.254 295.555 790.727 297.384 784.941 297.398C781.607 297.457 778.322 296.586 775.453 294.883C772.662 293.163 770.441 290.653 769.072 287.671C767.518 284.219 766.762 280.461 766.859 276.675C766.859 270.169 768.483 265.102 771.731 261.472C774.978 257.842 779.474 256.024 785.217 256.017C790.791 256.017 795.219 257.874 798.502 261.589C801.785 265.304 803.426 270.333 803.426 276.675ZM773.071 276.675C773.071 281.768 774.088 285.653 776.123 288.331C778.159 291.009 781.154 292.344 785.111 292.337C789.06 292.337 792.06 291.005 794.109 288.342C796.158 285.678 797.179 281.772 797.172 276.622C797.172 271.551 796.151 267.698 794.109 265.062C792.067 262.427 789.043 261.11 785.037 261.11C781.08 261.11 778.098 262.41 776.092 265.009C774.085 267.609 773.078 271.498 773.071 276.675Z" fill="#414042"/>
    <path d="M855.138 310.471H849.097V296.62H816.242V256.752H822.273V291.464H843.439V256.752H849.469V291.464H855.138V310.471Z" fill="#414042"/>
    <path d="M870.752 256.752V282.067L870.497 288.693L870.39 290.824L891.95 256.806H899.469V296.716H893.832V272.318L893.949 267.513L894.13 262.783L872.603 296.716H865.083V256.752H870.752Z" fill="#414042"/>
    <path d="M957.181 276.676C957.181 282.72 955.465 287.532 952.033 291.112C948.601 294.692 943.811 296.737 937.664 297.249V314.615H931.718V297.249C925.712 296.794 920.962 294.731 917.466 291.059C913.97 287.387 912.226 282.592 912.233 276.676C912.233 270.638 913.97 265.83 917.445 262.25C920.919 258.67 925.748 256.646 931.931 256.177V240.036H937.685V256.209C943.755 256.763 948.527 258.862 952.001 262.506C955.476 266.149 957.202 270.873 957.181 276.676ZM918.54 276.676C918.54 281.335 919.604 284.989 921.731 287.639C923.858 290.288 927.251 291.829 931.91 292.263V261.238C927.432 261.643 924.081 263.113 921.859 265.617C919.636 268.12 918.54 271.817 918.54 276.676ZM950.927 276.676C950.927 267.378 946.506 262.257 937.664 261.312V292.241C942.259 291.783 945.63 290.228 947.747 287.575C949.863 284.922 950.927 281.31 950.927 276.676V276.676Z" fill="#414042"/>
    <path d="M988.493 297.398C986.05 297.427 983.629 296.937 981.388 295.959C979.229 294.989 977.367 293.459 975.996 291.527H975.56C975.84 293.725 975.985 295.938 975.996 298.154V314.615H970.008V256.752H974.922L975.751 262.218H976.049C977.409 260.193 979.276 258.562 981.463 257.487C983.687 256.482 986.107 255.983 988.546 256.028C993.836 256.028 997.917 257.835 1000.79 261.451C1003.66 265.066 1005.1 270.141 1005.1 276.675C1005.1 283.231 1003.64 288.324 1000.71 291.953C997.793 295.583 993.719 297.398 988.493 297.398ZM987.621 261.174C983.558 261.174 980.616 262.303 978.793 264.562C976.971 266.82 976.038 270.411 975.996 275.333V276.686C975.996 282.29 976.928 286.3 978.793 288.714C980.655 291.133 983.654 292.348 987.77 292.348C989.364 292.399 990.944 292.041 992.361 291.308C993.777 290.575 994.983 289.492 995.864 288.16C997.814 285.369 998.789 281.519 998.789 276.611C998.789 271.703 997.814 267.886 995.864 265.158C994.927 263.861 993.684 262.817 992.245 262.12C990.807 261.422 989.218 261.094 987.621 261.163V261.174Z" fill="#414042"/>
    <path d="M1052.2 276.676C1052.2 283.189 1050.57 288.267 1047.3 291.911C1044.03 295.555 1039.51 297.384 1033.74 297.398C1030.4 297.459 1027.12 296.588 1024.25 294.883C1021.46 293.167 1019.24 290.656 1017.87 287.671C1016.3 284.222 1015.53 280.464 1015.62 276.676C1015.62 270.169 1017.24 265.102 1020.49 261.472C1023.74 257.839 1028.24 256.028 1034.02 256.028C1039.59 256.028 1044.02 257.885 1047.3 261.6C1050.58 265.315 1052.22 270.34 1052.2 276.676ZM1021.85 276.676C1021.85 281.768 1022.87 285.653 1024.9 288.331C1026.94 291.009 1029.93 292.344 1033.88 292.337C1037.83 292.337 1040.83 291.005 1042.88 288.342C1044.92 285.678 1045.94 281.772 1045.95 276.622C1045.95 271.551 1044.92 267.698 1042.88 265.063C1040.83 262.427 1037.81 261.128 1033.82 261.163C1029.87 261.163 1026.89 262.463 1024.88 265.063C1022.87 267.662 1021.86 271.533 1021.85 276.676Z" fill="#414042"/>
    <path d="M1097.33 266.767C1097.41 267.858 1097.25 268.951 1096.86 269.974C1096.48 270.996 1095.87 271.923 1095.1 272.691C1093.31 274.17 1091.14 275.109 1088.83 275.397V275.727C1092.23 276.186 1094.7 277.187 1096.28 278.711C1097.08 279.549 1097.71 280.545 1098.11 281.636C1098.51 282.727 1098.68 283.889 1098.62 285.05C1098.7 286.711 1098.37 288.366 1097.65 289.866C1096.94 291.367 1095.86 292.667 1094.52 293.648C1091.8 295.665 1087.82 296.67 1082.59 296.663H1065.03V256.752H1082.52C1092.4 256.752 1097.34 260.091 1097.33 266.767ZM1091.45 267.353C1091.52 266.52 1091.35 265.683 1090.95 264.948C1090.55 264.213 1089.94 263.612 1089.21 263.219C1087.08 262.278 1084.75 261.858 1082.43 261.994H1071.05V273.256H1081.27C1085 273.256 1087.65 272.787 1089.15 271.871C1089.91 271.402 1090.53 270.732 1090.93 269.935C1091.34 269.138 1091.52 268.245 1091.45 267.353V267.353ZM1092.58 284.645C1092.64 283.709 1092.45 282.774 1092.01 281.943C1091.58 281.112 1090.92 280.417 1090.12 279.936C1088.48 278.949 1085.77 278.455 1081.99 278.455H1071.05V291.602H1082.14C1089.1 291.602 1092.58 289.283 1092.58 284.645Z" fill="#414042"/>
    <path d="M1132.83 256.752H1139.45L1122.25 276.015L1140.87 296.663H1133.8L1115.63 276.42V296.663H1109.6V256.752H1115.63V276.164L1132.83 256.752Z" fill="#414042"/>
    <path d="M1174.99 296.663L1173.78 290.984H1173.5C1171.94 293.123 1169.9 294.864 1167.55 296.066C1165.19 297.028 1162.65 297.482 1160.11 297.398C1156.16 297.398 1153.06 296.379 1150.82 294.34C1148.58 292.302 1147.46 289.4 1147.46 285.636C1147.46 277.567 1153.89 273.341 1166.76 272.957L1173.52 272.744V270.262C1173.52 267.13 1172.85 264.818 1171.51 263.326C1170.17 261.834 1168.02 261.089 1165.05 261.089C1161.11 261.252 1157.26 262.297 1153.78 264.146L1151.93 259.523C1153.97 258.425 1156.14 257.581 1158.38 257.008C1160.68 256.408 1163.04 256.104 1165.41 256.103C1170.17 256.103 1173.69 257.168 1175.97 259.299C1178.26 261.43 1179.4 264.818 1179.41 269.463V296.695L1174.99 296.663ZM1161.35 292.401C1165.1 292.401 1168.06 291.336 1170.2 289.311C1172.34 287.287 1173.39 284.357 1173.39 280.639V277.038L1167.35 277.294C1162.55 277.464 1159.09 278.21 1156.97 279.531C1155.93 280.175 1155.08 281.09 1154.52 282.178C1153.96 283.267 1153.7 284.487 1153.78 285.71C1153.71 286.638 1153.86 287.567 1154.21 288.43C1154.55 289.293 1155.08 290.068 1155.77 290.696C1157.36 291.93 1159.34 292.536 1161.35 292.401V292.401Z" fill="#414042"/>
    <path d="M1213.63 272.744C1213.63 264.001 1214.91 257.185 1217.48 252.299C1218.67 249.935 1220.4 247.878 1222.51 246.289C1224.63 244.7 1227.09 243.621 1229.69 243.136C1236.62 241.659 1242.73 240.459 1248.01 239.535L1249.14 244.862C1240.72 246.283 1234.7 247.398 1231.06 248.208C1229.41 248.536 1227.86 249.213 1226.49 250.192C1225.13 251.171 1223.99 252.431 1223.15 253.886C1221.39 256.884 1220.43 260.95 1220.26 266.085H1220.7C1222.22 264.033 1224.21 262.384 1226.51 261.28C1228.82 260.133 1231.37 259.535 1233.95 259.533C1238.84 259.533 1242.66 261.124 1245.41 264.306C1248.15 267.488 1249.52 271.895 1249.51 277.528C1249.51 283.757 1247.92 288.629 1244.75 292.145C1241.57 295.661 1237.15 297.416 1231.48 297.408C1228.93 297.507 1226.39 296.969 1224.09 295.845C1221.79 294.72 1219.81 293.043 1218.32 290.963C1215.19 286.651 1213.63 280.578 1213.63 272.744ZM1232.09 292.337C1239.48 292.337 1243.17 287.614 1243.17 278.167C1243.17 269.168 1239.82 264.665 1233.11 264.658C1231.28 264.656 1229.46 265.049 1227.79 265.808C1226.1 266.56 1224.53 267.57 1223.15 268.802C1221.85 269.92 1220.74 271.236 1219.86 272.701C1219.86 279.094 1220.86 283.956 1222.87 287.287C1223.79 288.896 1225.15 290.218 1226.77 291.109C1228.4 292 1230.24 292.425 1232.09 292.337V292.337Z" fill="#414042"/>
    <path d="M1267.99 256.752V282.067L1267.73 288.693L1267.63 290.824L1289.18 256.806H1296.7V296.716H1291.07V272.318L1291.18 267.513L1291.37 262.783L1269.84 296.716H1262.32V256.752H1267.99Z" fill="#414042"/>
    <path d="M1319.34 273.32C1326.87 273.32 1330.64 271.235 1330.64 267.066C1330.64 263.124 1327.59 261.156 1321.48 261.163C1319.77 261.147 1318.06 261.319 1316.39 261.675C1314.34 262.186 1312.33 262.866 1310.39 263.71L1308.27 258.798C1312.51 256.926 1317.11 255.982 1321.75 256.028C1326.33 256.028 1329.95 256.969 1332.59 258.851C1333.85 259.695 1334.87 260.844 1335.56 262.191C1336.25 263.539 1336.59 265.04 1336.55 266.554C1336.55 271.022 1334.07 273.945 1329.1 275.323V275.621C1331.66 276.223 1333.98 277.556 1335.79 279.456C1337.24 281.212 1337.99 283.436 1337.92 285.71C1337.98 287.408 1337.6 289.092 1336.82 290.6C1336.04 292.107 1334.88 293.388 1333.46 294.319C1330.5 296.379 1326.4 297.405 1321.16 297.398C1315.41 297.398 1310.98 296.535 1307.85 294.809V289.28C1312.05 291.309 1316.65 292.376 1321.31 292.401C1324.79 292.401 1327.43 291.801 1329.21 290.601C1330.07 290.046 1330.77 289.274 1331.24 288.364C1331.7 287.453 1331.93 286.435 1331.88 285.412C1331.88 280.774 1328.11 278.455 1320.57 278.455H1315.05V273.32H1319.34Z" fill="#414042"/>
    <path d="M1355.96 256.752V273.469H1378.29V256.752H1384.32V296.663H1378.29V278.679H1355.96V296.663H1349.93V256.752H1355.96Z" fill="#414042"/>
    <path d="M1416.18 297.398C1410.29 297.398 1405.64 295.601 1402.24 292.007C1398.83 288.413 1397.13 283.423 1397.13 277.038C1397.13 270.602 1398.71 265.492 1401.87 261.706C1403.42 259.84 1405.38 258.358 1407.59 257.373C1409.81 256.388 1412.22 255.927 1414.64 256.028C1419.6 256.028 1423.55 257.672 1426.49 260.96C1429.42 264.249 1430.88 268.589 1430.85 273.98V277.805H1403.41C1403.52 282.492 1404.7 286.044 1406.95 288.459C1409.2 290.874 1412.35 292.088 1416.41 292.102C1420.81 292.089 1425.15 291.172 1429.18 289.407V294.798C1427.23 295.663 1425.2 296.327 1423.11 296.78C1420.83 297.226 1418.51 297.433 1416.18 297.398V297.398ZM1414.59 261.088C1413.17 261.024 1411.74 261.27 1410.42 261.811C1409.1 262.352 1407.91 263.174 1406.94 264.221C1404.89 266.657 1403.71 269.703 1403.58 272.882H1424.41C1424.41 269.075 1423.56 266.156 1421.87 264.125C1420.97 263.098 1419.84 262.29 1418.58 261.764C1417.32 261.238 1415.96 261.007 1414.59 261.088V261.088Z" fill="#414042"/>
    <path d="M1459.27 297.398C1453.5 297.398 1449.04 295.622 1445.88 292.071C1442.71 288.519 1441.15 283.484 1441.18 276.963C1441.18 270.294 1442.79 265.137 1446 261.493C1449.21 257.85 1453.79 256.028 1459.72 256.028C1461.65 256.028 1463.58 256.235 1465.47 256.646C1467 256.96 1468.49 257.465 1469.9 258.148L1468.05 263.283C1466.63 262.723 1465.17 262.278 1463.68 261.952C1462.31 261.623 1460.91 261.445 1459.5 261.419C1451.41 261.419 1447.36 266.59 1447.36 276.931C1447.36 281.839 1448.35 285.604 1450.32 288.225C1452.29 290.846 1455.22 292.156 1459.11 292.156C1462.62 292.125 1466.09 291.4 1469.32 290.025V295.352C1466.18 296.828 1462.73 297.529 1459.27 297.398V297.398Z" fill="#414042"/>
    <path d="M1505.53 296.663L1504.33 290.984H1504.04C1502.49 293.123 1500.45 294.864 1498.1 296.066C1495.74 297.028 1493.2 297.482 1490.65 297.398C1486.7 297.398 1483.61 296.379 1481.37 294.34C1479.13 292.302 1478.01 289.4 1478.01 285.636C1478.01 277.567 1484.44 273.341 1497.31 272.957L1504.07 272.744V270.262C1504.07 267.13 1503.4 264.818 1502.05 263.326C1500.71 261.834 1498.56 261.089 1495.6 261.089C1491.66 261.252 1487.81 262.297 1484.32 264.146L1482.47 259.523C1484.52 258.425 1486.68 257.581 1488.93 257.008C1491.23 256.408 1493.59 256.104 1495.96 256.103C1500.71 256.103 1504.23 257.168 1506.52 259.299C1508.81 261.43 1509.96 264.818 1509.96 269.463V296.695L1505.53 296.663ZM1491.9 292.401C1495.65 292.401 1498.61 291.336 1500.75 289.311C1502.88 287.287 1503.94 284.357 1503.94 280.639V277.038L1497.9 277.294C1493.1 277.464 1489.64 278.21 1487.52 279.531C1486.47 280.175 1485.63 281.09 1485.07 282.178C1484.5 283.267 1484.25 284.487 1484.32 285.71C1484.26 286.638 1484.41 287.567 1484.75 288.43C1485.1 289.293 1485.63 290.068 1486.31 290.696C1487.9 291.93 1489.89 292.536 1491.9 292.401V292.401Z" fill="#414042"/>
</svg>